<?xml version="1.0" encoding="UTF-8"?>
<svg id="Camada_2" xmlns="http://www.w3.org/2000/svg" viewBox="0 0 408.19 133.01">
  <defs>
    <style>
      .cls-1 {
        fill: #00958b;
      }
    </style>
  </defs>
  <g id="Camada_1-2" data-name="Camada_1">
    <g>
      <g>
        <path class="cls-1" d="M35.35,19.82l-17.37,17.37c-5.57,5.57-5.57,14.6,0,20.17l17.37,17.37c5.47,5.47,5.47,14.34,0,19.82l-26.92-26.92c-11.24-11.24-11.24-29.46,0-40.7L35.35,0c5.47,5.47,5.47,14.34,0,19.82Z"/>
        <path class="cls-1" d="M35.56,113.2l17.37-17.37c5.57-5.57,5.57-14.6,0-20.17l-17.37-17.37c-5.47-5.47-5.47-14.34,0-19.82l26.92,26.92c11.24,11.24,11.24,29.46,0,40.7l-26.92,26.92c-5.47-5.47-5.47-14.34,0-19.82Z"/>
      </g>
      <g>
        <path class="cls-1" d="M249.9,49.88h0c-16.34.03-26.96,11.19-27.06,28.45v23.06c0,2.29,1.07,5.03,6.18,5.03s5.93-2.74,5.93-5.03v-23.06c0-11.49,5.71-18.63,14.88-18.63h.14c9.19,0,14.9,7.14,14.9,18.63v23.06c0,2.29,1.03,5.03,5.93,5.03s6.18-2.74,6.18-5.03v-23.06c-.1-17.25-10.72-28.42-27.06-28.44"/>
        <path class="cls-1" d="M403.36,49.88h-.26c-16.34.03-26.96,11.19-27.06,28.45v23.06c0,2.29,1.07,5.03,6.18,5.03s5.93-2.74,5.93-5.03v-23.06c0-11.49,5.71-18.63,14.88-18.63h.18c1.28.01,2.61-.51,3.56-1.46.92-.92,1.43-2.14,1.43-3.44h0c0-2.69-2.17-4.89-4.84-4.92"/>
        <path class="cls-1" d="M131.75,59.26c-8.52-3.63-15.88-6.76-15.88-13.6,0-6.28,5.52-10.34,14.07-10.34,4.61,0,8.62,1.19,13.4,3.97.51.29.95.56,1.35.8,1.52.92,2.43,1.47,3.5,1.47,2.92,0,5.27-3.28,5.27-5.99,0-2.38-2.14-4.11-4.46-5.62-5.17-3.37-12.12-5.3-19.07-5.3-15.51,0-25.93,8.68-25.93,21.6,0,13.62,11.79,18.67,22.19,23.12,9.1,3.9,16.96,7.26,16.96,15.19,0,7.19-6.28,12.02-15.63,12.02-5.1,0-9.54-1.51-14.43-4.91l-1.09-.74c-1.82-1.24-2.82-1.92-4.29-1.92-2.84,0-5.27,3.23-5.27,5.87,0,1.99,1.33,3.83,4.3,5.95,5.76,4.19,12.9,6.4,20.66,6.4,16.51,0,27.61-9.36,27.61-23.29,0-14.8-12.36-20.07-23.27-24.71"/>
        <path class="cls-1" d="M177.44,82.16h26.85c4.33,0,8.75-.94,8.75-7.91,0-14.35-9.67-24.37-23.52-24.37-15.17,0-24.97,11.26-24.97,28.69s10.16,28.21,26.53,28.21c6.68,0,12.41-1.58,17.02-4.7,2.67-1.74,3.86-3.39,3.86-5.38,0-2.53-1.97-5.27-5.15-5.27-1.4,0-2.66.84-4.41,2.01l-.25.17c-2.85,1.9-6.41,2.86-10.59,2.86-8.54,0-13.62-4.43-15.11-13.16-.05-.29.03-.58.22-.8.19-.23.47-.36.77-.36M176.58,71.81c1.41-7.89,5.92-12.23,12.7-12.23s11.55,4.59,12.19,12.29c.02.28-.07.54-.26.75-.19.2-.44.32-.72.32h-22.97c-.28,0-.55-.12-.73-.34-.18-.22-.26-.5-.21-.78"/>
        <path class="cls-1" d="M294.89,26.34c-4.31,0-7.43,3.08-7.43,7.31s3.12,7.43,7.43,7.43,7.43-3.13,7.43-7.43-3.12-7.31-7.43-7.31"/>
        <path class="cls-1" d="M294.77,50.48c-4.75,0-5.75,2.74-5.75,5.03v45.88c0,2.29,1.04,5.03,5.99,5.03s5.75-2.74,5.75-5.03v-45.88c0-2.29-1.04-5.03-5.99-5.03"/>
        <path class="cls-1" d="M338.52,49.88c-16.48,0-27.13,11.26-27.13,28.69s10.55,28.45,26.89,28.45,27.25-11.26,27.25-28.69-10.6-28.45-27.01-28.45M338.52,97.08c-9.13,0-15.03-7.36-15.03-18.75s5.71-18.63,14.9-18.63,14.91,7.23,14.91,18.87-5.67,18.51-14.79,18.51"/>
      </g>
    </g>
  </g>
</svg>